<svg xmlns="http://www.w3.org/2000/svg" viewBox="0 0 64 64" fill="none">
  <!-- Los Diablos: Burn it all down — flaming skull -->
  <path d="M22 38 Q18 30, 22 22 Q26 14, 32 14 Q38 14, 42 22 Q46 30, 42 38"
        stroke="#FF4500" stroke-width="2.5" stroke-linecap="round" fill="none"/>
  <path d="M22 38 Q24 44, 32 46 Q40 44, 42 38"
        stroke="#FF4500" stroke-width="2" stroke-linecap="round" fill="none"/>
  <circle cx="27" cy="28" r="3" stroke="#FF4500" stroke-width="1.5" fill="none"/>
  <circle cx="37" cy="28" r="3" stroke="#FF4500" stroke-width="1.5" fill="none"/>
  <path d="M28 36 L30 34 L32 36 L34 34 L36 36"
        stroke="#FF4500" stroke-width="1.5" stroke-linecap="round" stroke-linejoin="round" fill="none"/>
  <path d="M26 14 Q24 8, 28 6" stroke="#FF4500" stroke-width="1.5" stroke-linecap="round" fill="none" opacity="0.7"/>
  <path d="M32 14 Q32 6, 34 4" stroke="#FF4500" stroke-width="1.5" stroke-linecap="round" fill="none" opacity="0.7"/>
  <path d="M38 14 Q40 8, 36 6" stroke="#FF4500" stroke-width="1.5" stroke-linecap="round" fill="none" opacity="0.7"/>
  <path d="M30 48 L30 54" stroke="#FF4500" stroke-width="1" stroke-linecap="round" opacity="0.4"/>
  <path d="M34 48 L34 54" stroke="#FF4500" stroke-width="1" stroke-linecap="round" opacity="0.4"/>
</svg>
